<svg xmlns="http://www.w3.org/2000/svg" xmlns:xlink="http://www.w3.org/1999/xlink" width="86" zoomAndPan="magnify" viewBox="0 0 64.5 52.499999" height="70" preserveAspectRatio="xMidYMid meet" version="1.0"><defs><clipPath id="7d3568e0a8"><path d="M 1.574219 32.484375 L 26.730469 32.484375 L 26.730469 46.4375 L 1.574219 46.4375 Z M 1.574219 32.484375 " clip-rule="nonzero"/></clipPath><clipPath id="499053c338"><path d="M 21 14 L 63.949219 14 L 63.949219 27 L 21 27 Z M 21 14 " clip-rule="nonzero"/></clipPath><clipPath id="f293b6ad18"><path d="M 21.535156 25.039062 L 40.253906 25.039062 L 40.253906 49 L 21.535156 49 Z M 21.535156 25.039062 " clip-rule="nonzero"/></clipPath><clipPath id="bea7e51ea6"><path d="M 34 29 L 59 29 L 59 48 L 34 48 Z M 34 29 " clip-rule="nonzero"/></clipPath><clipPath id="79f0ea67a7"><path d="M 35.648438 28.964844 L 59.410156 32.023438 L 57.210938 49.101562 L 33.449219 46.042969 Z M 35.648438 28.964844 " clip-rule="nonzero"/></clipPath><clipPath id="e434f5e13d"><path d="M 35.648438 28.964844 L 59.410156 32.023438 L 57.210938 49.101562 L 33.449219 46.042969 Z M 35.648438 28.964844 " clip-rule="nonzero"/></clipPath><clipPath id="c4b7fbd3b7"><path d="M 44 30 L 50 30 L 50 37 L 44 37 Z M 44 30 " clip-rule="nonzero"/></clipPath><clipPath id="c23a5df66a"><path d="M 50.480469 25.105469 L 49.703125 36.308594 L 44.472656 35.945312 L 45.253906 24.742188 Z M 50.480469 25.105469 " clip-rule="nonzero"/></clipPath><clipPath id="07cd937a55"><path d="M 50.480469 25.105469 L 49.703125 36.308594 L 44.472656 35.945312 L 45.253906 24.742188 Z M 50.480469 25.105469 " clip-rule="nonzero"/></clipPath><clipPath id="7ad48f76f8"><path d="M 46 24 L 49 24 L 49 28 L 46 28 Z M 46 24 " clip-rule="nonzero"/></clipPath><clipPath id="e25ba2ff92"><path d="M 50.480469 25.105469 L 49.703125 36.308594 L 44.472656 35.945312 L 45.253906 24.742188 Z M 50.480469 25.105469 " clip-rule="nonzero"/></clipPath><clipPath id="4f03180bc2"><path d="M 50.480469 25.105469 L 49.703125 36.308594 L 44.472656 35.945312 L 45.253906 24.742188 Z M 50.480469 25.105469 " clip-rule="nonzero"/></clipPath></defs><path fill="#34b456" d="M 17.40625 29.25 C 22.863281 17.117188 31.136719 13.128906 44.140625 12.359375 C 50.984375 11.953125 49.273438 4.90625 42.777344 5.679688 C 29.015625 7.316406 21.195312 16.21875 17.40625 29.25 " fill-opacity="1" fill-rule="evenodd"/><path fill="#8fd23c" d="M 16.039062 37.792969 C 13.4375 26.070312 17.265625 18.734375 26.253906 11.164062 C 30.980469 7.179688 25.945312 3.011719 21.660156 7.070312 C 12.597656 15.671875 11.742188 26.324219 16.039062 37.792969 " fill-opacity="1" fill-rule="evenodd"/><path fill="#c1e475" d="M 20.769531 44.371094 C 12.0625 37.933594 10.328125 30.671875 11.964844 20.203125 C 12.824219 14.699219 6.925781 14.835938 6.417969 20.132812 C 5.335938 31.351562 11.058594 39.105469 20.769531 44.371094 " fill-opacity="1" fill-rule="evenodd"/><g clip-path="url(#7d3568e0a8)"><path fill="#ddef8f" d="M 26.71875 45.574219 C 16.976562 46.394531 11.476562 42.511719 6.347656 34.445312 C 3.648438 30.203125 -0.265625 33.808594 2.546875 37.699219 C 8.5 45.945312 17 47.789062 26.71875 45.574219 " fill-opacity="1" fill-rule="evenodd"/></g><g clip-path="url(#499053c338)"><path fill="#2a7f4a" d="M 21.566406 25.046875 C 33.988281 17.070312 44.082031 18.371094 56.632812 25.519531 C 63.230469 29.277344 65.910156 21.699219 59.402344 18.488281 C 45.628906 11.6875 32.976562 15.230469 21.566406 25.046875 " fill-opacity="1" fill-rule="evenodd"/></g><g clip-path="url(#f293b6ad18)"><path fill="#7ed957" d="M 21.820312 42.765625 L 21.804688 42.835938 C 21.628906 42.238281 21.535156 41.609375 21.535156 40.957031 L 21.535156 25.042969 L 22.367188 25.042969 C 25.707031 25.042969 28.457031 27.613281 28.804688 30.90625 L 34.757812 25.042969 C 34.757812 25.042969 34.980469 25.277344 35.335938 25.648438 C 37.828125 28.25 37.765625 32.40625 35.199219 34.929688 L 33.5625 36.542969 L 40.253906 47.429688 C 40.253906 47.429688 39.980469 47.601562 39.546875 47.875 C 36.59375 49.742188 32.734375 48.902344 30.785156 46.015625 L 26.15625 46.015625 C 26.15625 45.4375 26.617188 44.96875 27.191406 44.96875 L 30.132812 44.96875 L 28.203125 41.824219 L 23.945312 46.015625 C 23.945312 46.015625 23.71875 45.78125 23.363281 45.410156 C 22.625 44.636719 22.109375 43.726562 21.820312 42.765625 Z M 32.089844 37.996094 L 37.402344 46.644531 C 35.523438 47.214844 33.421875 46.46875 32.335938 44.699219 L 29.675781 40.371094 Z M 34.601562 28.035156 L 34.675781 28.175781 C 35.527344 29.984375 35.183594 32.039062 33.800781 33.46875 L 24.097656 43.023438 C 23.148438 41.28125 23.421875 39.042969 24.898438 37.589844 Z M 23.542969 36.085938 L 23.542969 27.242188 L 23.695312 27.285156 C 25.566406 27.925781 26.78125 29.605469 26.832031 31.609375 L 26.832031 32.847656 Z M 23.542969 36.085938 " fill-opacity="1" fill-rule="evenodd"/></g><g clip-path="url(#bea7e51ea6)"><g clip-path="url(#79f0ea67a7)"><g clip-path="url(#e434f5e13d)"><path fill="#c1e475" d="M 46.144531 41.285156 L 45.695312 40.539062 L 40.507812 31.886719 L 40.445312 31.949219 C 39.6875 32.6875 39.539062 33.828125 40.085938 34.734375 L 45.773438 44.21875 L 53.679688 36.484375 C 54.4375 35.746094 54.582031 34.605469 54.039062 33.699219 L 53.984375 33.621094 L 46.773438 40.679688 L 46.152344 41.285156 Z M 45.480469 46.429688 C 45.324219 46.5625 45.167969 46.683594 45.007812 46.78125 C 43.402344 47.773438 41.511719 47.261719 40.535156 45.636719 L 35.117188 36.597656 C 34.796875 36.058594 34.882812 35.382812 35.328125 34.945312 L 35.589844 34.6875 L 41.714844 44.902344 C 42.289062 45.863281 43.328125 46.167969 44.289062 45.582031 L 44.75 45.222656 L 38.996094 35.621094 C 38.042969 34.03125 38.296875 32.042969 39.625 30.746094 L 39.75 30.621094 L 40.765625 29.621094 L 46.429688 39.070312 L 54.300781 31.363281 L 55.03125 32.585938 L 55.117188 32.738281 C 56.074219 34.332031 55.820312 36.316406 54.492188 37.617188 L 46.496094 45.449219 L 46.847656 45.914062 C 47.625 46.730469 48.710938 46.6875 49.515625 45.90625 L 58.027344 37.574219 L 58.210938 37.890625 C 58.53125 38.425781 58.445312 39.101562 58 39.542969 L 50.46875 46.914062 C 49.113281 48.238281 47.164062 48.257812 45.851562 46.890625 C 45.71875 46.753906 45.59375 46.59375 45.480469 46.429688 Z M 45.480469 46.429688 " fill-opacity="1" fill-rule="evenodd"/></g></g></g><g clip-path="url(#c4b7fbd3b7)"><g clip-path="url(#c23a5df66a)"><g clip-path="url(#07cd937a55)"><path fill="#7ed957" d="M 49.890625 33.578125 C 49.996094 32.078125 48.910156 30.78125 47.46875 30.679688 C 46.023438 30.578125 44.769531 31.714844 44.664062 33.210938 C 44.558594 34.710938 45.644531 36.007812 47.089844 36.109375 C 48.53125 36.210938 49.789062 35.074219 49.890625 33.578125 Z M 46.082031 33.3125 C 46.128906 32.625 46.703125 32.105469 47.363281 32.152344 C 48.023438 32.199219 48.523438 32.792969 48.472656 33.476562 C 48.425781 34.164062 47.851562 34.683594 47.191406 34.636719 C 46.53125 34.589844 46.035156 33.996094 46.082031 33.3125 Z M 46.082031 33.3125 " fill-opacity="1" fill-rule="nonzero"/></g></g></g><g clip-path="url(#7ad48f76f8)"><g clip-path="url(#e25ba2ff92)"><g clip-path="url(#4f03180bc2)"><path fill="#7ed957" d="M 47.714844 27.125 C 47.574219 27.113281 47.445312 27.078125 47.320312 27.011719 C 47.195312 26.949219 47.085938 26.859375 46.992188 26.75 C 46.902344 26.640625 46.835938 26.519531 46.789062 26.382812 C 46.746094 26.246094 46.730469 26.101562 46.738281 25.957031 C 46.75 25.8125 46.785156 25.675781 46.847656 25.546875 C 46.910156 25.417969 46.996094 25.304688 47.101562 25.207031 C 47.207031 25.113281 47.328125 25.042969 47.460938 24.996094 C 47.589844 24.949219 47.726562 24.929688 47.867188 24.941406 C 48.007812 24.949219 48.140625 24.988281 48.265625 25.050781 C 48.390625 25.117188 48.496094 25.203125 48.589844 25.3125 C 48.679688 25.421875 48.746094 25.542969 48.792969 25.679688 C 48.835938 25.820312 48.851562 25.960938 48.84375 26.105469 C 48.832031 26.25 48.796875 26.386719 48.734375 26.515625 C 48.671875 26.648438 48.585938 26.761719 48.480469 26.855469 C 48.375 26.949219 48.257812 27.023438 48.125 27.066406 C 47.992188 27.113281 47.855469 27.132812 47.714844 27.125 Z M 47.714844 27.125 " fill-opacity="1" fill-rule="nonzero"/></g></g></g></svg>